<?xml version="1.0" standalone="yes"?>
<svg xmlns="http://www.w3.org/2000/svg" width="292" height="294">
<path style="fill:#191da6; stroke:none;" d="M0 0L0 294L292 294L292 0L0 0z"/>
<path style="fill:#5d6bc3; stroke:none;" d="M140 16L140 17L152 17L140 16M128 17L128 18L133 18L128 17z"/>
<path style="fill:#8f96d3; stroke:none;" d="M133.667 17.3333L134.333 17.6667L133.667 17.3333z"/>
<path style="fill:#5cbdf0; stroke:none;" d="M135 17.4244C66.3726 26.4616 15.9955 79.7457 16 150C16.0011 166.73 20.1087 183.681 26.7191 199C28.8645 203.972 31.0834 210.923 35.4784 214.397C39.2454 217.374 46.4892 216 51 216L91 216L200 216C216.996 216 236.219 218.54 252.985 215.852C260.544 214.64 264.477 201.206 266.986 195C276.315 171.926 278.835 145.285 273.35 121C259.448 59.459 200.541 8.79349 135 17.4244z"/>
<path style="fill:#8f96d3; stroke:none;" d="M158 17L159 18L158 17z"/>
<path style="fill:#5d6bc3; stroke:none;" d="M159 17L159 18L163 18L159 17M122 18L122 19L126 19L122 18M166 18L166 19L170 19L166 18M118.667 19.3333L119.333 19.6667L118.667 19.3333z"/>
<path style="fill:#8f96d3; stroke:none;" d="M171 19L172 20L171 19z"/>
<path style="fill:#5d6bc3; stroke:none;" d="M172 19L172 20L175 20L172 19M113.667 20.3333L114.333 20.6667L113.667 20.3333z"/>
<path style="fill:#8f96d3; stroke:none;" d="M115 20L116 21L115 20z"/>
<path style="fill:#5d6bc3; stroke:none;" d="M176 20L176 21L179 21L176 20M110.667 21.3333L111.333 21.6667L110.667 21.3333M180.667 21.3333L181.333 21.6667L180.667 21.3333M106.667 22.3333L107.333 22.6667L106.667 22.3333z"/>
<path style="fill:#8f96d3; stroke:none;" d="M108 22L109 23L108 22z"/>
<path style="fill:#5d6bc3; stroke:none;" d="M184.667 22.3333L185.333 22.6667L184.667 22.3333M103.667 23.3333L104.333 23.6667L103.667 23.3333z"/>
<path style="fill:#8f96d3; stroke:none;" d="M105 23L106 24L105 23z"/>
<path style="fill:#5d6bc3; stroke:none;" d="M187.667 23.3333L188.333 23.6667L187.667 23.3333M101 24L102 25L101 24z"/>
<path style="fill:#8f96d3; stroke:none;" d="M102 24L103 25L102 24z"/>
<path style="fill:#5d6bc3; stroke:none;" d="M190.667 24.3333L191.333 24.6667L190.667 24.3333M98.6667 25.3333L99.3333 25.6667L98.6667 25.3333M192.667 25.3333L193.333 25.6667L192.667 25.3333M96 26L97 27L96 26M195 26L196 27L195 26M93.6667 27.3333L94.3333 27.6667L93.6667 27.3333M197.667 27.3333L198.333 27.6667L197.667 27.3333M91 28L92 29L91 28z"/>
<path style="fill:#8f96d3; stroke:none;" d="M199 28L200 29L199 28z"/>
<path style="fill:#5d6bc3; stroke:none;" d="M200 28L201 29L200 28M89 29L90 30L89 29z"/>
<path style="fill:#8f96d3; stroke:none;" d="M90 29L91 30L90 29M201 29L202 30L201 29z"/>
<path style="fill:#5d6bc3; stroke:none;" d="M202 29L203 30L202 29M87 30L88 31L87 30M204 30L205 31L204 30M85 31L86 32L85 31M206 31L207 32L206 31M83 32L84 33L83 32M208 32L209 33L208 32M81 33L82 34L81 33z"/>
<path style="fill:#8f96d3; stroke:none;" d="M82 33L83 34L82 33z"/>
<path style="fill:#5d6bc3; stroke:none;" d="M209.667 33.3333L210.333 33.6667L209.667 33.3333M79.6667 34.3333L80.3333 34.6667L79.6667 34.3333M211 34L212 35L211 34M78 35L79 36L78 35M213 35L214 36L213 35M76 36L77 37L76 36z"/>
<path style="fill:#8f96d3; stroke:none;" d="M77 36L78 37L77 36M214 36L215 37L214 36z"/>
<path style="fill:#5d6bc3; stroke:none;" d="M215 36L216 37L215 36M75 37L76 38L75 37M216 37L217 38L216 37M73 38L74 39L73 38z"/>
<path style="fill:#8f96d3; stroke:none;" d="M74 38L75 39L74 38z"/>
<path style="fill:#5d6bc3; stroke:none;" d="M218 38L219 39L218 38M72 39L73 40L72 39M219 39L220 40L219 39M70 40L71 41L70 40z"/>
<path style="fill:#8f96d3; stroke:none;" d="M220 40L221 41L220 40z"/>
<path style="fill:#5d6bc3; stroke:none;" d="M221 40L222 41L221 40M69 41L70 42L69 41M222 41L223 42L222 41M67.6667 42.3333L68.3333 42.6667L67.6667 42.3333M223 42L224 43L223 42M66 43L67 44L66 43z"/>
<path style="fill:#8f96d3; stroke:none;" d="M224 43L225 44L224 43z"/>
<path style="fill:#5d6bc3; stroke:none;" d="M225 43L226 44L225 43M65 44L66 45L65 44M226 44L227 45L226 44M64 45L65 46L64 45M227 45L228 46L227 45M61 48L64 47L61 48z"/>
<path style="fill:#8f96d3; stroke:none;" d="M228 46L229 47L228 46z"/>
<path style="fill:#5d6bc3; stroke:none;" d="M229 46L230 47L229 46z"/>
<path style="fill:#8f96d3; stroke:none;" d="M62 47L63 48L62 47z"/>
<path style="fill:#5d6bc3; stroke:none;" d="M230 47L231 48L230 47M60 48L61 49L60 48M231 48L232 49L231 48M59 49L60 50L59 49M232 49L233 50L232 49M58 50L59 51L58 50M233 50L234 51L233 50M57 51L58 52L57 51M234 51L235 52L234 51M56 52L57 53L56 52M235 52L236 53L235 52M55 53L56 54L55 53M236 53L237 54L236 53M54 54L55 55L54 54M237 54L238 55L237 54M53 55L54 56L53 55M238 55L239 56L238 55M52 56L53 57L52 56M239 56L240 57L239 56M51 57L52 58L51 57M240 57L241 58L240 57M50 58L51 59L50 58M241 58L242 59L241 58M49 59L50 60L49 59M242 59L243 60L242 59M48 60L49 61L48 60M243 60L244 61L243 60M47 61L48 62L47 61M244 61L245 62L244 61M46 62L47 63L46 62M245 62L247 64L245 62M45 63L46 64L45 63z"/>
<path style="fill:#8f96d3; stroke:none;" d="M245 63L246 64L245 63M45 64L46 65L45 64z"/>
<path style="fill:#5d6bc3; stroke:none;" d="M44 65L45 66L44 65M247 65L248 66L247 65M43 66L44 67L43 66M248 66L249 67L248 66M42 67L43 68L42 67M249 67L250 68L249 67M41 69L42 70L41 69M250 69L251 70L250 69M40 70L41 71L40 70M251 70L252 71L251 70M39 71L40 72L39 71M252 71L253 72L252 71z"/>
<path style="fill:#8f96d3; stroke:none;" d="M39 72L40 73L39 72z"/>
<path style="fill:#5d6bc3; stroke:none;" d="M38 73L39 74L38 73M253 73L254 74L253 73M37 74L38 75L37 74M254 74L255 75L254 74z"/>
<path style="fill:#8f96d3; stroke:none;" d="M37 75L38 76L37 75M254 75L255 76L254 75z"/>
<path style="fill:#5d6bc3; stroke:none;" d="M36 76L37 77L36 76M255 76L256 77L255 76M35 77L36 78L35 77M256.333 77.6667L256.667 78.3333L256.333 77.6667M34 79L35 80L34 79M257 79L258 80L257 79M33.3333 80.6667L33.6667 81.3333L33.3333 80.6667M258 81L259 82L258 81M32 82L33 83L32 82M259.333 82.6667L259.667 83.3333L259.333 82.6667z"/>
<path style="fill:#8f96d3; stroke:none;" d="M32 83L33 84L32 83z"/>
<path style="fill:#5d6bc3; stroke:none;" d="M31 84L32 85L31 84M260 84L261 85L260 84z"/>
<path style="fill:#8f96d3; stroke:none;" d="M31 85L32 86L31 85z"/>
<path style="fill:#5d6bc3; stroke:none;" d="M30 86L31 87L30 86M261 86L262 87L261 86M29 88L30 89L29 88M262 88L263 89L262 88z"/>
<path style="fill:#8f96d3; stroke:none;" d="M29 89L30 90L29 89z"/>
<path style="fill:#5d6bc3; stroke:none;" d="M28 90L29 91L28 90M263 90L264 91L263 90z"/>
<path style="fill:#8f96d3; stroke:none;" d="M28 91L29 92L28 91z"/>
<path style="fill:#5d6bc3; stroke:none;" d="M27 92L28 93L27 92M264 92L265 93L264 92z"/>
<path style="fill:#8f96d3; stroke:none;" d="M264 93L265 94L264 93z"/>
<path style="fill:#5d6bc3; stroke:none;" d="M26.3333 94.6667L26.6667 95.3333L26.3333 94.6667M265.333 94.6667L265.667 95.3333L265.333 94.6667M25.3333 96.6667L25.6667 97.3333L25.3333 96.6667M266.333 96.6667L266.667 97.3333L266.333 96.6667M24.3333 99.6667L24.6667 100.333L24.3333 99.6667M267.333 99.6667L267.667 100.333L267.333 99.6667M23 102L24 103L23 102M268 102L269 103L268 102z"/>
<path style="fill:#8f96d3; stroke:none;" d="M268 103L269 104L268 103z"/>
<path style="fill:#5d6bc3; stroke:none;" d="M22.3333 104.667L22.6667 105.333L22.3333 104.667M269.333 104.667L269.667 105.333L269.333 104.667M21.3333 107.667L21.6667 108.333L21.3333 107.667M270.333 107.667L270.667 108.333L270.333 107.667z"/>
<path style="fill:#8f96d3; stroke:none;" d="M270 109L271 110L270 109z"/>
<path style="fill:#5d6bc3; stroke:none;" d="M20.3333 111.667L20.6667 112.333L20.3333 111.667M271.333 111.667L271.667 112.333L271.333 111.667z"/>
<path style="fill:#8f96d3; stroke:none;" d="M76 113L77 114L76 113z"/>
<path style="fill:#5d6bc3; stroke:none;" d="M77 113L78 114L77 113M233 113L234 114L233 113M19 114L19 117L20 117L19 114z"/>
<path style="fill:#8f96d3; stroke:none;" d="M54 114L52 117L54 114z"/>
<path style="fill:#5d6bc3; stroke:none;" d="M55 114L56 115L55 114z"/>
<path style="fill:#191da6; stroke:none;" d="M65 131C58.2701 132.302 48.5149 126.488 56.3179 119.372C58.6579 117.238 62.1498 118.291 65 118C57.529 106.504 48.1336 122.1 51.7423 130.956C54.4758 137.664 62.1591 136.633 65 131z"/>
<path style="fill:#5d6bc3; stroke:none;" d="M62 114L63 115L62 114M74 114L75 115L74 114z"/>
<path style="fill:#191da6; stroke:none;" d="M71 131C74.8638 136.072 87.6913 137.589 84.3773 128.042C83.3354 125.041 75.9546 122.292 76.6312 119.267C77.1055 117.147 82.4369 118.16 84 118C81.3738 113.959 72.5814 111.948 72.3765 119.04C72.2958 121.835 87.2408 134.587 76.0201 131.69C74.0159 131.172 73.0665 130.901 71 131z"/>
<path style="fill:#5d6bc3; stroke:none;" d="M81 114L82 115L81 114M109 114L109 136L110 136L109 114z"/>
<path style="fill:#191da6; stroke:none;" d="M110 114L110 136L113 136L113 126L121 126L121 136L124 136L124 114L121 114L121 123L113 123L113 114L110 114z"/>
<path style="fill:#5d6bc3; stroke:none;" d="M120 114L120 123L121 123L120 114z"/>
<path style="fill:#8f96d3; stroke:none;" d="M230 114L231 115L230 114z"/>
<path style="fill:#5d6bc3; stroke:none;" d="M231 114L230 120L231 120L231 114z"/>
<path style="fill:#191da6; stroke:none;" d="M232 114L231 120L227 120L227 123L231 123C231 129.737 229.704 135.728 238 136L238 133L234 133L234 123L239 123L239 120L234 120L234 114L232 114z"/>
<path style="fill:#5d6bc3; stroke:none;" d="M272 114L272 117L273 117L272 114z"/>
<path style="fill:#8f96d3; stroke:none;" d="M72 115L73 116L72 115z"/>
<path style="fill:#5d6bc3; stroke:none;" d="M64 116L65 117L64 116M72 116L73 117L72 116M83 116L84 117L83 116z"/>
<path style="fill:#8f96d3; stroke:none;" d="M19 117L20 118L19 117M57 117L58 118L57 117M59 117L60 118L59 117z"/>
<path style="fill:#5d6bc3; stroke:none;" d="M60 117L61 118L60 117M65 117L66 118L65 117M71 117L71 121L72 121L71 117z"/>
<path style="fill:#8f96d3; stroke:none;" d="M76 117L77 118L76 117z"/>
<path style="fill:#5d6bc3; stroke:none;" d="M79 117L80 118L79 117M84 117L85 118L84 117z"/>
<path style="fill:#8f96d3; stroke:none;" d="M272 117L273 118L272 117z"/>
<path style="fill:#5d6bc3; stroke:none;" d="M18 118L18 121L19 121L18 118M51.3333 118.667L51.6667 119.333L51.3333 118.667z"/>
<path style="fill:#8f96d3; stroke:none;" d="M61 118L62 119L61 118z"/>
<path style="fill:#5d6bc3; stroke:none;" d="M64 118L65 119L64 118z"/>
<path style="fill:#8f96d3; stroke:none;" d="M75 118L76 119L75 118M80 118L81 119L80 118z"/>
<path style="fill:#5d6bc3; stroke:none;" d="M83 118L84 119L83 118z"/>
<path style="fill:#8f96d3; stroke:none;" d="M113 118L114 119L113 118z"/>
<path style="fill:#5d6bc3; stroke:none;" d="M273 118L273 121L274 121L273 118M62 119L63 120L62 119z"/>
<path style="fill:#8f96d3; stroke:none;" d="M63 119L64 120L63 119z"/>
<path style="fill:#5d6bc3; stroke:none;" d="M135 119L135 120L138 120L135 119M156.667 119.333L157.333 119.667L156.667 119.333M174.667 119.333L175.333 119.667L174.667 119.333z"/>
<path style="fill:#8f96d3; stroke:none;" d="M193 119L194 120L193 119z"/>
<path style="fill:#5d6bc3; stroke:none;" d="M194 119L195 120L194 119z"/>
<path style="fill:#8f96d3; stroke:none;" d="M50 120L51 121L50 120z"/>
<path style="fill:#5d6bc3; stroke:none;" d="M54.3333 120.667L54.6667 121.333L54.3333 120.667M75 120L76 121L75 120z"/>
<path style="fill:#8f96d3; stroke:none;" d="M131 120L132 121L131 120z"/>
<path style="fill:#191da6; stroke:none;" d="M131 124C135.26 122.882 137.806 122.919 140 127C135.724 125.775 125.057 128.635 131.449 134.396C134.2 136.875 139.565 135.837 143 136C143 132.077 143.902 126.663 141.821 123.148C139.101 118.554 132.572 119.264 131 124z"/>
<path style="fill:#5d6bc3; stroke:none;" d="M140 120L141 121L140 120z"/>
<path style="fill:#191da6; stroke:none;" d="M149 120L149 136L152 136C152 121.772 159.991 121.955 160 136L162 136C162.033 123.647 161.983 120.616 149 120z"/>
<path style="fill:#5d6bc3; stroke:none;" d="M152.667 120.333L153.333 120.667L152.667 120.333M160 120L161 121L160 120M171 120L172 121L171 120z"/>
<path style="fill:#191da6; stroke:none;" d="M179 135L174 142C183.559 140.507 182.498 127.469 181 120C177.746 120.195 173.279 119.391 170.653 121.743C163.361 128.274 171.29 136.745 179 135z"/>
<path style="fill:#5d6bc3; stroke:none;" d="M177.667 120.333L178.333 120.667L177.667 120.333M181.333 120.667L181.667 121.333L181.333 120.667M190 120L188 123L190 120z"/>
<path style="fill:#191da6; stroke:none;" d="M191.109 121.029C182.933 125.584 189.342 139.647 197.891 134.968C206.079 130.488 200.046 116.049 191.109 121.029z"/>
<path style="fill:#5d6bc3; stroke:none;" d="M198 120L199 121L198 120z"/>
<path style="fill:#191da6; stroke:none;" d="M207 120C207 132.381 208.555 135.409 221 136L221 120L218 120C217.998 134.216 210.002 134.057 210 120L207 120z"/>
<path style="fill:#5d6bc3; stroke:none;" d="M210 120L210 131L211 131L210 120M217 120L217 131L218 131L217 120M239 120L239 123L240 123L239 120z"/>
<path style="fill:#8f96d3; stroke:none;" d="M18 121L19 122L18 121z"/>
<path style="fill:#5d6bc3; stroke:none;" d="M50 121L50 129L51 129L50 121z"/>
<path style="fill:#8f96d3; stroke:none;" d="M71 121L72 122L71 121z"/>
<path style="fill:#5d6bc3; stroke:none;" d="M76 121L77 122L76 121M130.333 121.667L130.667 122.333L130.333 121.667M141 121L142 122L141 121z"/>
<path style="fill:#8f96d3; stroke:none;" d="M148 121L148 136L149 136L148 121z"/>
<path style="fill:#5d6bc3; stroke:none;" d="M161 121L162 122L161 121z"/>
<path style="fill:#8f96d3; stroke:none;" d="M226 121L227 122L226 121M273 121L274 122L273 121z"/>
<path style="fill:#5d6bc3; stroke:none;" d="M72 122L73 123L72 122M78 122L79 123L78 122M113 122L114 123L113 122z"/>
<path style="fill:#8f96d3; stroke:none;" d="M119 122L120 123L119 122z"/>
<path style="fill:#5d6bc3; stroke:none;" d="M135.667 122.333L136.333 122.667L135.667 122.333M142.333 122.667L142.667 123.333L142.333 122.667M169 122L170 123L169 122M200 122L201 123L200 122M73 123L74 124L73 123M80 123L81 124L80 123z"/>
<path style="fill:#8f96d3; stroke:none;" d="M130 123L131 124L130 123z"/>
<path style="fill:#5d6bc3; stroke:none;" d="M132 123L133 124L132 123z"/>
<path style="fill:#8f96d3; stroke:none;" d="M138 123L139 124L138 123z"/>
<path style="fill:#5d6bc3; stroke:none;" d="M153 123L154 124L153 123z"/>
<path style="fill:#8f96d3; stroke:none;" d="M154 123L155 124L154 123M157 123L158 124L157 123z"/>
<path style="fill:#5d6bc3; stroke:none;" d="M162 123L162 126L163 126L162 123M168.333 123.667L168.667 124.333L168.333 123.667M172.667 123.333L173.333 123.667L172.667 123.333z"/>
<path style="fill:#8f96d3; stroke:none;" d="M174 123L174 124L177 124L174 123z"/>
<path style="fill:#5d6bc3; stroke:none;" d="M177 123L177 133L178 133L177 123M192 123L191 125L192 123z"/>
<path style="fill:#5cbdf0; stroke:none;" d="M193.299 124.176C189.674 125.947 191.331 133.086 195.701 131.338C199.532 129.806 197.318 122.212 193.299 124.176z"/>
<path style="fill:#5d6bc3; stroke:none;" d="M196 123L197 124L196 123M201.333 123.667L201.667 124.333L201.333 123.667M230 123L230 134L231 134L230 123z"/>
<path style="fill:#8f96d3; stroke:none;" d="M234 123L235 124L234 123z"/>
<path style="fill:#5d6bc3; stroke:none;" d="M274 123L274 127L275 127L274 123M17 124L17 127L18 127L17 124M74 124L75 125L74 124M82 124L83 125L82 124M139 124L139 127L140 127L139 124M152.333 124.667L152.667 125.333L152.333 124.667z"/>
<path style="fill:#8f96d3; stroke:none;" d="M158 124L159 125L158 124M172 124L173 125L172 124z"/>
<path style="fill:#5cbdf0; stroke:none;" d="M178 132L178 124C170.802 124.561 170.802 131.439 178 132z"/>
<path style="fill:#5d6bc3; stroke:none;" d="M181.333 124.667L181.667 125.333L181.333 124.667M187 124L188 125L187 124z"/>
<path style="fill:#8f96d3; stroke:none;" d="M197 124L198 125L197 124M75 125L76 126L75 125z"/>
<path style="fill:#5d6bc3; stroke:none;" d="M76 125L77 126L76 125M83 125L84 126L83 125M135 125L136 126L135 125M171 125L171 130L172 130L171 125M198.333 125.667L198.667 126.333L198.333 125.667M78 126L79 127L78 126M84 126L85 127L84 126M113.667 126.333L114.333 126.667L113.667 126.333M116 126L116 127L120 127L120 136L121 136L121 126L116 126z"/>
<path style="fill:#8f96d3; stroke:none;" d="M131 126L132 127L131 126z"/>
<path style="fill:#5d6bc3; stroke:none;" d="M132 126L133 127L132 126M159 126L159 136L160 136L159 126M190 126L190 130L191 130L190 126z"/>
<path style="fill:#8f96d3; stroke:none;" d="M206 126L206 129L207 129L206 126M17 127L18 128L17 127M54 127L55 128L54 127z"/>
<path style="fill:#5d6bc3; stroke:none;" d="M80 127L81 128L80 127M130 127L131 128L130 127M162 127L162 136L163 136L162 127z"/>
<path style="fill:#8f96d3; stroke:none;" d="M186 127L186 130L187 130L186 127M198.333 127.667L198.667 128.333L198.333 127.667z"/>
<path style="fill:#5d6bc3; stroke:none;" d="M54 128L55 129L54 128M81 128L82 129L81 128M85 128L85 132L86 132L85 128z"/>
<path style="fill:#8f96d3; stroke:none;" d="M129 128L130 129L129 128z"/>
<path style="fill:#5d6bc3; stroke:none;" d="M136 128L137 129L136 128M181 128L182 129L181 128z"/>
<path style="fill:#8f96d3; stroke:none;" d="M50 129L51 130L50 129z"/>
<path style="fill:#5d6bc3; stroke:none;" d="M129 129L130 130L129 129M133 129L133 133L134 133L133 129z"/>
<path style="fill:#5cbdf0; stroke:none;" d="M133 130L133 132C136.332 132.637 137.842 132.294 139 129L133 130z"/>
<path style="fill:#5d6bc3; stroke:none;" d="M139 129L139 132L140 132L139 129M198.333 129.667L198.667 130.333L198.333 129.667M16 130L16 134L17 134L16 130M55 130L56 131L55 130M62.6667 130.333L63.3333 130.667L62.6667 130.333M71 130L72 131L71 130M74 130L75 131L74 130z"/>
<path style="fill:#8f96d3; stroke:none;" d="M81 130L82 131L81 130z"/>
<path style="fill:#5d6bc3; stroke:none;" d="M275 130L275 134L276 134L275 130M51 131L52 132L51 131z"/>
<path style="fill:#8f96d3; stroke:none;" d="M56 131L57 132L56 131z"/>
<path style="fill:#5d6bc3; stroke:none;" d="M61 131L62 132L61 131M65 131L66 132L65 131z"/>
<path style="fill:#8f96d3; stroke:none;" d="M70 131L71 132L70 131z"/>
<path style="fill:#5d6bc3; stroke:none;" d="M75 131L76 132L75 131M81 131L82 132L81 131M168 131L169 132L168 131M172 131L173 132L172 131M187 131L188 132L187 131M191 131L192 132L191 131M197 131L198 132L197 131M201.333 131.667L201.667 132.333L201.333 131.667M207.333 131.667L207.667 132.333L207.333 131.667z"/>
<path style="fill:#8f96d3; stroke:none;" d="M211 131L212 132L211 131M216 131L217 132L216 131z"/>
<path style="fill:#5d6bc3; stroke:none;" d="M57 132L58 133L57 132M60 132L61 133L60 132M71 132L72 133L71 132M76 132L77 133L76 132z"/>
<path style="fill:#8f96d3; stroke:none;" d="M77 132L78 133L77 132M79 132L80 133L79 132z"/>
<path style="fill:#5d6bc3; stroke:none;" d="M80 132L81 133L80 132M129.333 132.667L129.667 133.333L129.333 132.667z"/>
<path style="fill:#8f96d3; stroke:none;" d="M137 132L138 133L137 132z"/>
<path style="fill:#5d6bc3; stroke:none;" d="M138 132L139 133L138 132z"/>
<path style="fill:#8f96d3; stroke:none;" d="M168 132L169 133L168 132z"/>
<path style="fill:#5d6bc3; stroke:none;" d="M173 132L174 133L173 132z"/>
<path style="fill:#8f96d3; stroke:none;" d="M174 132L174 133L177 133L174 132z"/>
<path style="fill:#5d6bc3; stroke:none;" d="M181 132L181 138L182 138L181 132M192 132L193 133L192 132z"/>
<path style="fill:#8f96d3; stroke:none;" d="M193 132L193 133L196 133L193 132z"/>
<path style="fill:#5d6bc3; stroke:none;" d="M196 132L197 133L196 132M212 132L213 133L212 132M215.667 132.333L216.333 132.667L215.667 132.333M234 132L235 133L234 132z"/>
<path style="fill:#8f96d3; stroke:none;" d="M52 133L53 134L52 133z"/>
<path style="fill:#5d6bc3; stroke:none;" d="M64 133L65 134L64 133M72 133L73 134L72 133M84 133L85 134L84 133M169 133L170 134L169 133M188 133L189 134L188 133M200 133L201 134L200 133z"/>
<path style="fill:#8f96d3; stroke:none;" d="M207 133L208 134L207 133z"/>
<path style="fill:#5d6bc3; stroke:none;" d="M238 133L238 136L239 136L238 133z"/>
<path style="fill:#8f96d3; stroke:none;" d="M16 134L17 135L16 134z"/>
<path style="fill:#5d6bc3; stroke:none;" d="M53 134L54 135L53 134M63 134L64 135L63 134M73 134L74 135L73 134M83 134L84 135L83 134M130 134L131 135L130 134M170 134L172 136L170 134M189 134L190 135L189 134M199 134L200 135L199 134M208 134L209 135L208 134M55 135L56 136L55 135M62 135L63 136L62 135M74 135L75 136L74 135M81.6667 135.333L82.3333 135.667L81.6667 135.333M131 135L132 136L131 135M138.667 135.333L139.333 135.667L138.667 135.333z"/>
<path style="fill:#8f96d3; stroke:none;" d="M170 135L171 136L170 135z"/>
<path style="fill:#5d6bc3; stroke:none;" d="M177 135L179 137L179 135L177 135M190.667 135.333L191.333 135.667L190.667 135.333M198 135L199 136L198 135M209 135L210 136L209 135M216.667 135.333L217.333 135.667L216.667 135.333z"/>
<path style="fill:#8f96d3; stroke:none;" d="M231 135L232 136L231 135M78 136L79 137L78 136z"/>
<path style="fill:#5d6bc3; stroke:none;" d="M135 136L136 137L135 136z"/>
<path style="fill:#8f96d3; stroke:none;" d="M177.333 136.667L177.667 137.333L177.333 136.667z"/>
<path style="fill:#5d6bc3; stroke:none;" d="M194 136L195 137L194 136z"/>
<path style="fill:#8f96d3; stroke:none;" d="M212.667 136.333L213.333 136.667L212.667 136.333M176 138L177 139L176 138z"/>
<path style="fill:#5d6bc3; stroke:none;" d="M173 139L173 141L175 139L173 139M180 139L181 140L180 139M179 140L180 141L179 140M15 141L15 152L16 152L15 141z"/>
<path style="fill:#8f96d3; stroke:none;" d="M173 141L174 142L173 141z"/>
<path style="fill:#5d6bc3; stroke:none;" d="M178 141L179 142L178 141M174 142L175 143L174 142M276 142L276 152L277 152L276 142M124.667 157.333L125.333 157.667L124.667 157.333z"/>
<path style="fill:#191da6; stroke:none;" d="M124 163L168 163C167.798 160.463 167.633 158.326 164.852 157.434C156.657 154.804 135.343 154.804 127.148 157.434C124.367 158.326 124.202 160.464 124 163z"/>
<path style="fill:#5d6bc3; stroke:none;" d="M166 157L167 158L166 157M16 160L16 164L17 164L16 160M275 160L275 164L276 164L275 160M124 163L124 164L168 164C156.537 159.19 136.48 163 124 163z"/>
<path style="fill:#8f96d3; stroke:none;" d="M125 164L125 165L128 165L125 164z"/>
<path style="fill:#5cbdf0; stroke:none;" d="M128 164L128 165L162 165L128 164z"/>
<path style="fill:#8f96d3; stroke:none;" d="M162 164L162 165L167 165L162 164z"/>
<path style="fill:#191da6; stroke:none;" d="M124 165L124 196L168 196L168 165L124 165z"/>
<path style="fill:#5d6bc3; stroke:none;" d="M17 167L17 170L18 170L17 167M274 167L274 171L275 171L274 167z"/>
<path style="fill:#8f96d3; stroke:none;" d="M18 172L19 173L18 172z"/>
<path style="fill:#5d6bc3; stroke:none;" d="M136 172L136 173L136 174L143 179L136 185L144 179L144 178L136 172M18 173L18 176L19 176L18 173z"/>
<path style="fill:#8f96d3; stroke:none;" d="M137 173L140 177L137 173z"/>
<path style="fill:#5d6bc3; stroke:none;" d="M273 173L273 176L274 176L273 173z"/>
<path style="fill:#5cbdf0; stroke:none;" d="M139 175L140 176L139 175M140 176L141 180L142 180L140 176z"/>
<path style="fill:#8f96d3; stroke:none;" d="M272 176L273 177L272 176z"/>
<path style="fill:#5d6bc3; stroke:none;" d="M19 177L19 180L20 180L19 177M272 177L272 180L273 180L272 177z"/>
<path style="fill:#8f96d3; stroke:none;" d="M142 178L143 179L142 178z"/>
<path style="fill:#5cbdf0; stroke:none;" d="M140 180L138 183L140 180z"/>
<path style="fill:#5d6bc3; stroke:none;" d="M20.3333 181.667L20.6667 182.333L20.3333 181.667M271.333 181.667L271.667 182.333L271.333 181.667z"/>
<path style="fill:#8f96d3; stroke:none;" d="M137 183L138 184L137 183z"/>
<path style="fill:#5d6bc3; stroke:none;" d="M143.333 183.667L143.667 184.333L143.333 183.667z"/>
<path style="fill:#8f96d3; stroke:none;" d="M144 183C146.618 185.996 153.382 185.996 156 183L144 183z"/>
<path style="fill:#5cbdf0; stroke:none;" d="M145 183L145 184L153 184L145 183z"/>
<path style="fill:#5d6bc3; stroke:none;" d="M156.333 183.667L156.667 184.333L156.333 183.667z"/>
<path style="fill:#8f96d3; stroke:none;" d="M21 184L22 185L21 184M270 184L271 185L270 184z"/>
<path style="fill:#5d6bc3; stroke:none;" d="M21 185L22 186L21 185M270.333 185.667L270.667 186.333L270.333 185.667z"/>
<path style="fill:#8f96d3; stroke:none;" d="M269 187L270 188L269 187z"/>
<path style="fill:#5d6bc3; stroke:none;" d="M22.3333 188.667L22.6667 189.333L22.3333 188.667M269.333 188.667L269.667 189.333L269.333 188.667M23 191L24 192L23 191M268 191L269 192L268 191z"/>
<path style="fill:#8f96d3; stroke:none;" d="M123.333 192.667L123.667 193.333L123.333 192.667z"/>
<path style="fill:#5d6bc3; stroke:none;" d="M24.3333 193.667L24.6667 194.333L24.3333 193.667M267.333 193.667L267.667 194.333L267.333 193.667M25.3333 196.667L25.6667 197.333L25.3333 196.667M124 196L124 197L168 197C156.537 192.19 136.48 196 124 196M266.333 196.667L266.667 197.333L266.333 196.667M26.3333 198.667L26.6667 199.333L26.3333 198.667M265.333 198.667L265.667 199.333L265.333 198.667z"/>
<path style="fill:#8f96d3; stroke:none;" d="M27 200L28 201L27 200M264 200L265 201L264 200z"/>
<path style="fill:#5d6bc3; stroke:none;" d="M27 201L28 202L27 201M264 201L265 202L264 201M28 203L29 204L28 203M263 203L264 204L263 203z"/>
<path style="fill:#8f96d3; stroke:none;" d="M262 204L263 205L262 204z"/>
<path style="fill:#5d6bc3; stroke:none;" d="M29 205L30 206L29 205M262 205L263 206L262 205M30 207L31 208L30 207M261 207L262 208L261 207z"/>
<path style="fill:#8f96d3; stroke:none;" d="M31 208L32 209L31 208M260 208L261 209L260 208z"/>
<path style="fill:#5d6bc3; stroke:none;" d="M31 209L32 210L31 209M260 209L261 210L260 209z"/>
<path style="fill:#8f96d3; stroke:none;" d="M259 210L260 211L259 210z"/>
<path style="fill:#5d6bc3; stroke:none;" d="M32 211L33 212L32 211M259 211L260 212L259 211M33 212L34 213L33 212M258 212L259 213L258 212z"/>
<path style="fill:#8f96d3; stroke:none;" d="M34 213L35 214L34 213z"/>
<path style="fill:#5d6bc3; stroke:none;" d="M34 214L35 215L34 214M257 214L258 215L257 214z"/>
<path style="fill:#8f96d3; stroke:none;" d="M35 215L36 216L35 215M256 215L257 216L256 215z"/>
<path style="fill:#5d6bc3; stroke:none;" d="M24.1481 216.742C20.0027 218.618 21.0002 224.285 21 228L21 260C21.0002 263.673 19.9868 269.58 24.1481 271.397C28.6887 273.379 36.1167 272 41 272L79 272L211 272L253 272C257.503 272 265.787 273.571 269.682 270.972C273.118 268.679 272 262.52 272 259L272 227C271.998 223.052 272.746 217.637 267.941 216.318C251.76 211.874 228.821 216 212 216L89 216L44 216C38.2828 216 29.4379 214.349 24.1481 216.742z"/>
<path style="fill:#ebf1fd; stroke:none;" d="M114 239L114 250L121 250L121 248L117 248L120 244L117 241L121 241L121 239L114 239z"/>
<path style="fill:#8f96d3; stroke:none;" d="M121 239L122 240L121 239z"/>
<path style="fill:#ebf1fd; stroke:none;" d="M128 239C124.454 244.761 119.193 249.056 130 250L130 239L128 239z"/>
<path style="fill:#8f96d3; stroke:none;" d="M130 239L130 242L131 242L130 239z"/>
<path style="fill:#ebf1fd; stroke:none;" d="M132 239L132 241L134 241L134 239L132 239z"/>
<path style="fill:#8f96d3; stroke:none;" d="M134.333 239.667L134.667 240.333L134.333 239.667M145.333 239.667L145.667 240.333L145.333 239.667z"/>
<path style="fill:#ebf1fd; stroke:none;" d="M146 239L146 250L152 250L152 248L148 248L148 239L146 239z"/>
<path style="fill:#5d6bc3; stroke:none;" d="M130 240L131 241L130 240z"/>
<path style="fill:#ebf1fd; stroke:none;" d="M136 240C135.229 244.865 135.556 249.092 141 250L139 240L136 240z"/>
<path style="fill:#5cbdf0; stroke:none;" d="M145 241L145 244L146 244L145 241z"/>
<path style="fill:#8f96d3; stroke:none;" d="M123 242L124 243L123 242z"/>
<path style="fill:#ebf1fd; stroke:none;" d="M132 242L132 250L134 250L134 242L132 242z"/>
<path style="fill:#8f96d3; stroke:none;" d="M134 242L134 250L135 250L134 242M140.333 242.667L140.667 243.333L140.333 242.667M154 242L153 244L154 242z"/>
<path style="fill:#ebf1fd; stroke:none;" d="M155.318 243.086C151.56 245.256 154.924 251.083 158.682 248.914C162.44 246.744 159.076 240.917 155.318 243.086z"/>
<path style="fill:#8f96d3; stroke:none;" d="M159 242L160 243L159 242z"/>
<path style="fill:#ebf1fd; stroke:none;" d="M168 249L168 250L162 250C167.623 257.917 169.997 246.483 170 242C163.322 242.481 158.92 248.293 168 249z"/>
<path style="fill:#8f96d3; stroke:none;" d="M167 242L168 243L167 242z"/>
<path style="fill:#ebf1fd; stroke:none;" d="M173.434 243.047C169.432 245.688 173.672 251.696 177.397 248.953C180.816 246.435 177.294 240.499 173.434 243.047z"/>
<path style="fill:#8f96d3; stroke:none;" d="M120.333 243.667L120.667 244.333L120.333 243.667M130 243L131 244L130 243M160 243L161 244L160 243M125 244L126 245L125 244z"/>
<path style="fill:#5d6bc3; stroke:none;" d="M126 244L126 248L127 248L126 244z"/>
<path style="fill:#8f96d3; stroke:none;" d="M127 244L128 245L127 244M145 244L145 250L146 250L145 244z"/>
<path style="fill:#5d6bc3; stroke:none;" d="M156 244L156 248L158 248L158 244L156 244M165 244L165 247L167 247L167 244L165 244z"/>
<path style="fill:#8f96d3; stroke:none;" d="M171 244L172 245L171 244M174 244L175 245L174 244z"/>
<path style="fill:#5d6bc3; stroke:none;" d="M175 244L175 248L176 248L175 244z"/>
<path style="fill:#8f96d3; stroke:none;" d="M176 244L177 245L176 244M179 244L179 248L180 248L179 244M130.333 245.667L130.667 246.333L130.333 245.667M155.333 245.667L155.667 246.333L155.333 245.667M158.333 245.667L158.667 246.333L158.333 245.667M164 245L165 246L164 245M167 245L168 246L167 245M125 247L126 248L125 247M174 247L175 248L174 247M176 247L177 248L176 247M121 248L121 250L123 248L121 248M130.333 248.667L130.667 249.333L130.333 248.667M152 248L152 250L154 248L152 248M160 248L161 249L160 248M123 249L124 250L123 249M127 249L128 250L127 249M154 249L155 250L154 249M159 249L160 250L159 249M167 249L168 250L167 249M169 251L170 252L169 251M163 252L164 253L163 252M168 252L169 253L168 252M112 272L113 273L112 272z"/>
<path style="fill:#5cbdf0; stroke:none;" d="M113 272L113 273C134.819 277.501 156.227 278.633 178 273L157 272L113 272z"/>
<path style="fill:#8f96d3; stroke:none;" d="M178.667 272.333L179.333 272.667L178.667 272.333z"/>
<path style="fill:#5d6bc3; stroke:none;" d="M113 273L113 274L116 274L113 273M176 273L176 274L179 274L176 273M117 274L117 275L120 275L117 274z"/>
<path style="fill:#8f96d3; stroke:none;" d="M171 274L172 275L171 274z"/>
<path style="fill:#5d6bc3; stroke:none;" d="M172 274L172 275L175 275L172 274M122 275L122 276L126 276L122 275M166 275L166 276L170 276L166 275M128 276L128 277L133 277L128 276z"/>
<path style="fill:#8f96d3; stroke:none;" d="M133.667 276.333L134.333 276.667L133.667 276.333M158 276L159 277L158 276z"/>
<path style="fill:#5d6bc3; stroke:none;" d="M159 276L159 277L163 277L159 276M140 277L140 278L152 278L140 277z"/>
</svg>
